<?xml version="1.0" encoding="UTF-8"?>
<svg width="35px" height="35px" viewBox="0 0 35 35" version="1.1" xmlns="http://www.w3.org/2000/svg" xmlns:xlink="http://www.w3.org/1999/xlink" style="background: #000000;">
    <!-- Generator: Sketch 42 (36781) - http://www.bohemiancoding.com/sketch -->
    <title>fb</title>
    <desc>Created with Sketch.</desc>
    <defs></defs>
    <g id="Page-5" stroke="none" stroke-width="1" fill="none" fill-rule="evenodd">
        <g id="fb" fill-rule="nonzero">
            <g id="Facebook">
                <g id="Group">
                    <g>
                        <circle id="facebook-back" fill="#000000" cx="17.5" cy="17.5" r="17.5"></circle>
                        <path d="M26.0139414,7.9296875 L8.98619531,7.9296875 C8.40259766,7.9296875 7.9296875,8.40246094 7.9296875,8.98619531 L7.9296875,26.0139414 C7.9296875,26.5974023 8.40259766,27.0703125 8.98619531,27.0703125 L18.1531602,27.0703125 L18.1531602,22.9386372 L18.1531602,19.6581328 L15.6588359,19.6581328 L15.6588359,16.7692656 L18.1531602,16.7692656 L18.1531602,14.6390508 C18.1531602,12.1667656 19.6631914,10.8205508 21.8688477,10.8205508 C22.9249453,10.8205508 23.8328672,10.8991914 24.0974727,10.9344375 L24.0974727,13.5180664 L22.5682188,13.5187227 C21.368457,13.5187227 21.1363906,14.0887031 21.1363906,14.9250391 L21.1363906,16.7692656 L23.9968203,16.7692656 L23.6243164,19.6581328 L21.1363906,19.6581328 L21.1363906,27.0703125 L26.0139414,27.0703125 C26.5974023,27.0703125 27.0703125,26.5974023 27.0703125,26.0139414 L27.0703125,8.98619531 C27.0703125,8.40246094 26.5974023,7.9296875 26.0139414,7.9296875 Z" id="facebook-facebook" fill="#FFFFFF"></path>
                    </g>
                </g>
            </g>
        </g>
    </g>
</svg>