<?xml version="1.0" encoding="UTF-8"?>
<svg width="35px" height="35px" viewBox="0 0 35 35" version="1.1" xmlns="http://www.w3.org/2000/svg" xmlns:xlink="http://www.w3.org/1999/xlink" style="background: #000000;">
    <!-- Generator: Sketch 42 (36781) - http://www.bohemiancoding.com/sketch -->
    <title>insta</title>
    <desc>Created with Sketch.</desc>
    <defs></defs>
    <g id="Page-5" stroke="none" stroke-width="1" fill="none" fill-rule="evenodd">
        <g id="insta">
            <g id="Instagram">
                <g id="Group">
                    <g>
                        <circle id="instagram-back" fill="#000000" fill-rule="nonzero" cx="17.5" cy="17.5" r="17.5"></circle>
                        <path d="M25.0390273,15.991418 L23.3327227,15.991418 C23.4568906,16.4740625 23.530582,16.9782266 23.530582,17.4995898 C23.530582,20.8309063 20.8303867,23.530582 17.4998633,23.530582 C14.1694766,23.530582 11.469418,20.8309063 11.469418,17.4995898 C11.469418,16.9782266 11.5431094,16.4740625 11.6675508,15.991418 L9.96110937,15.991418 L9.96110937,24.2843945 C9.96110937,24.7001563 10.2987773,25.0376875 10.7157422,25.0376875 L24.2841211,25.0376875 C24.7012227,25.0376875 25.0390273,24.7001563 25.0390273,24.2843945 L25.0390273,15.991418 Z M25.0390273,10.7149219 C25.0390273,10.2987773 24.7012227,9.96110938 24.2841211,9.96110938 L22.0232031,9.96110938 C21.6068945,9.96110938 21.2693906,10.2987773 21.2693906,10.7149219 L21.2693906,12.9767969 C21.2693906,13.3929688 21.6068945,13.7306094 22.0232031,13.7306094 L24.2841211,13.7306094 C24.7012227,13.7306094 25.0390273,13.3929688 25.0390273,12.9767969 L25.0390273,10.7149219 L25.0390273,10.7149219 Z M17.4998633,13.7306094 C15.4181016,13.7306094 13.7306094,15.4178555 13.7306094,17.4995898 C13.7306094,19.5812148 15.4181016,21.2693906 17.4998633,21.2693906 C19.5817617,21.2693906 21.2693906,19.5812148 21.2693906,17.4995898 C21.2693906,15.4178555 19.5817617,13.7306094 17.4998633,13.7306094 L17.4998633,13.7306094 Z M9.96110937,27.2999453 C8.71248437,27.2999453 7.70005469,26.2871055 7.70005469,25.0376875 L7.70005469,9.96110938 C7.70005469,8.71234766 8.71248437,7.70005469 9.96110937,7.70005469 L25.0390273,7.70005469 C26.2879258,7.70005469 27.2999453,8.71234766 27.2999453,9.96110938 L27.2999453,25.0376875 C27.2999453,26.2871055 26.2879258,27.2999453 25.0390273,27.2999453 L9.96110937,27.2999453 Z" id="instagram-instagram" fill="#FFFFFF"></path>
                    </g>
                </g>
            </g>
        </g>
    </g>
</svg>