<?xml version="1.0" encoding="UTF-8"?>
<svg width="35px" height="35px" viewBox="0 0 35 35" version="1.1" xmlns="http://www.w3.org/2000/svg" xmlns:xlink="http://www.w3.org/1999/xlink" style="background: #000000;">
    <!-- Generator: Sketch 42 (36781) - http://www.bohemiancoding.com/sketch -->
    <title>yelp</title>
    <desc>Created with Sketch.</desc>
    <defs></defs>
    <g id="Page-5" stroke="none" stroke-width="1" fill="none" fill-rule="evenodd">
        <g id="yelp" fill-rule="nonzero">
            <g id="Yelp">
                <g id="yelp-yelp">
                    <g>
                        <circle id="yelp-back" fill="#000000" cx="17.5" cy="17.5" r="17.5"></circle>
                        <g id="yelp-yelp_1_" transform="translate(9.843750, 7.656250)" fill="#FFFFFF">
                            <g id="Group">
                                <path d="M0.569296875,9.47977734 C0.250195313,9.98927344 0.116566406,11.5957188 0.226707031,12.6627813 C0.265289063,13.0144492 0.328972656,13.3073828 0.422296875,13.4833398 C0.548871094,13.7258242 0.763300781,13.8694883 1.00723438,13.8777461 C1.16358594,13.8865781 1.26090234,13.8598633 4.20248828,12.914043 C4.20248828,12.914043 5.51014844,12.496668 5.51682031,12.4937422 C5.84180078,12.4114922 6.06194531,12.1113672 6.08305469,11.7278984 C6.10441016,11.3353789 5.90053516,10.9887695 5.56661328,10.8638086 L4.643625,10.4880781 C1.48148438,9.18364453 1.34022656,9.13212891 1.18040234,9.13024219 C0.936742188,9.12089063 0.719386719,9.24426563 0.569296875,9.47977734 Z" id="Shape"></path>
                                <path d="M7.64170313,19.1964336 C7.69335547,19.0487773 7.69923438,18.9459648 7.70724609,15.8545625 C7.70724609,15.8545625 7.71498438,14.4895078 7.71673438,14.4756445 C7.73716016,14.1407656 7.52114453,13.8368945 7.16573047,13.6999023 C6.80028125,13.5583984 6.407625,13.6462539 6.18625,13.9202109 C6.18625,13.9202109 5.54192188,14.6863281 5.53965234,14.6863281 C3.32316797,17.2879766 3.23183984,17.4081523 3.1784375,17.562207 C3.14466797,17.6535352 3.13143359,17.7501953 3.14280859,17.8452695 C3.15601563,17.9843945 3.21822266,18.1203203 3.322375,18.2466211 C3.83479688,18.8586562 6.2986875,19.7638711 7.08533984,19.630625 C7.35970703,19.579875 7.55691016,19.4268867 7.64170313,19.1964336 Z" id="Shape"></path>
                                <path d="M12.6371328,18.1203203 C13.3802812,17.8255 15.0014102,15.7629883 15.1143672,14.9704297 C15.1541523,14.6940664 15.0681563,14.4569414 14.8777891,14.3047461 C14.7528008,14.2112852 14.657207,14.1746992 11.7177539,13.2101758 C11.7177539,13.2101758 10.4266641,12.78375 10.4114609,12.774918 C10.1000977,12.6547695 9.74389062,12.7658398 9.50301953,13.062793 C9.25468359,13.3661172 9.21675781,13.7656094 9.41516406,14.0684141 L9.93401172,14.9130352 C11.6798281,17.7488828 11.8130742,17.9486016 11.9394023,18.046875 C12.1337891,18.1990703 12.3810586,18.2247188 12.6371328,18.1203203 L12.6371328,18.1203203 Z" id="Shape"></path>
                                <path d="M11.1196094,10.8226836 C14.4609336,10.0133086 14.5899141,9.97032422 14.7220937,9.88514844 C14.9247656,9.74788281 15.0259648,9.52038281 15.0086289,9.24213281 C15.0086289,9.23250781 15.0104883,9.22342969 15.0086289,9.21328516 C14.9226328,8.39379297 13.4844336,6.25808203 12.7768047,5.91229297 C12.5257891,5.79211719 12.273707,5.80092187 12.0664961,5.94004687 C11.9361758,6.02442969 11.8427148,6.15073047 10.0536406,8.59753125 C10.0536406,8.59753125 9.24399219,9.69929297 9.23439453,9.71023047 C9.02182422,9.96953125 9.01944531,10.3409688 9.22583594,10.6579102 C9.44215234,10.9887695 9.80664453,11.1497969 10.1417422,11.0571289 C10.1417422,11.0571289 10.127332,11.0800977 10.1233398,11.0851563 C10.2883594,11.0224023 10.5834258,10.9500508 11.1196094,10.8226836 Z" id="Shape"></path>
                                <path d="M7.76373828,8.064 L7.76373828,8.064 C7.70617969,6.73979688 7.30898438,0.842734375 7.2611875,0.56984375 C7.19296484,0.321234375 7.00123047,0.145277344 6.7221875,0.0747578125 C5.87023828,-0.13671875 2.60993359,0.777328125 2.00484375,1.40002734 C1.81086719,1.60297266 1.73889844,1.852375 1.79804297,2.07268359 C1.89188672,2.26841016 5.93271875,8.62342578 5.93271875,8.62342578 C6.52966016,9.59194141 7.01711719,9.44267188 7.17625781,9.39140234 C7.33474219,9.34360547 7.81872656,9.19247656 7.76373828,8.064 Z" id="Shape"></path>
                            </g>
                        </g>
                    </g>
                </g>
            </g>
        </g>
    </g>
</svg>